{"title":"CzechMassage.Massage.98.XXX.720p.WMVKTR.XXXmegathor.wmv","uid":10622552,"size":237392398,"categoryP":"porn","categoryS":"movies","magnet":"?xt=urn:btih:6dc6d9ca7115b70c4ba0b0676ce66ae5dedf071d&amp;dn=CzechMassage.Massage.98.XXX.720p.WMVKTR.XXXmegathor.wmv&amp;tr=udp%3A%2F%2Ftracker.openbittorrent.com%3A80&amp;tr=udp%3A%2F%2Fopen.demonii.com%3A1337&amp;tr=udp%3A%2F%2Ftracker.coppersurfer.tk%3A6969&amp;tr=udp%3A%2F%2Fexodus.desync.com%3A6969","seeders":1,"leechers":0,"uploader":"XXXmegathor","files":1,"time":1406184579,"description":"CzechMassage.Massage.98.XXX.720p.WMVKTR.XXXmegathor\n\nSCREENIES &lt;a href=&quot;\nhttp://xxxtrapics.com/image/RK&quot; rel=&quot;nofollow&quot; target=&quot;_NEW&quot;&gt;\nhttp://xxxtrapics.com/image/RK&lt;/a&gt;\n\n\nDuration : 16mn 42s\nOverall bit rate : 1 894 Kbps\nMaximum Overall bit rate : 3 128 Kbps\nEncoded date : UTC 1970-01-01 00:00:00.000\nWM/EncodingSettings : Lavf55.19.104\n\nVideo\nID : 1\nFormat : WMV2\nCodec ID : WMV2\nCodec ID/Info : Windows Media Video 8\nDescription of the codec : wmv2\nDuration : 16mn 42s\nBit rate : 1 682 Kbps\nWidth : 1 280 pixels\nHeight : 720 pixels\nDisplay aspect ratio : 16:9\nFrame rate : 25.000 fps\nBit depth : 8 bits\nBits/(Pixel*Frame) : 0.073\nStream size : 201 MiB (89%)\n\nAudio\nID : 2\nFormat : WMA\nFormat version : Version 2\nCodec ID : 161\nCodec ID/Info : Windows Media Audio\nDescription of the codec : Windows Media Audio V8\nDuration : 16mn 42s\nBit rate : 128 Kbps\nChannel(s) : 2 channels\nSampling rate : 48.0 KHz\nBit depth : 16 bits\nStream size : 15.3 MiB (7%)","torrent":{"xt":"urn:btih:6dc6d9ca7115b70c4ba0b0676ce66ae5dedf071d","amp;dn":"CzechMassage.Massage.98.XXX.720p.WMVKTR.XXXmegathor.wmv","amp;tr":["udp%3A%2F%2Ftracker.openbittorrent.com%3A80","udp%3A%2F%2Fopen.demonii.com%3A1337","udp%3A%2F%2Ftracker.coppersurfer.tk%3A6969","udp%3A%2F%2Fexodus.desync.com%3A6969"],"infoHash":"6dc6d9ca7115b70c4ba0b0676ce66ae5dedf071d","infoHashBuffer":{"type":"Buffer","data":[109,198,217,202,113,21,183,12,75,160,176,103,108,230,106,229,222,223,7,29]},"announce":[],"urlList":[]}}